<svg xmlns="http://www.w3.org/2000/svg" xmlns:xlink="http://www.w3.org/1999/xlink" width="139" height="103" viewBox="0 0 139 103">
    <defs>
        <path id="c3za8myfna" d="M0 0H150V150H0z"/>
    </defs>
    <g fill="none" fill-rule="evenodd" transform="translate(-8 -20)">
        <mask id="z6qy2jz8ib" fill="#fff">
            <use xlink:href="#c3za8myfna"/>
        </mask>
        <path fill="#EEB216" d="M79.32 123C110.308 123 147 99.904 147 70.202 147 40.499 110.631 20 79.645 20 48.66 20 8 57.81 8 87.513 8 117.215 48.335 123 79.32 123z" mask="url(#z6qy2jz8ib)" opacity=".224"/>
        <g mask="url(#z6qy2jz8ib)">
            <g fill="#211FEC" fill-rule="nonzero">
                <path d="M49.6 41.438H32.795c-1.224 0-2.121.974-2.121 2.112 0 1.138.979 2.113 2.12 2.113H49.6c1.224 0 2.121-.975 2.121-2.113 0-1.137-.897-2.112-2.121-2.112zM49.6 52.081H32.795c-1.224 0-2.121.975-2.121 2.113 0 1.137.979 2.112 2.12 2.112H49.6c1.224 0 2.121-.975 2.121-2.112 0-1.138-.897-2.113-2.121-2.113zM49.6 62.725H32.795c-1.224 0-2.121.975-2.121 2.113 0 1.137.979 2.112 2.12 2.112H49.6c1.224 0 2.121-.975 2.121-2.112 0-1.138-.897-2.113-2.121-2.113zM25.208 41.438H23.25c-1.224 0-2.121.974-2.121 2.112 0 1.138.979 2.113 2.121 2.113h1.958c1.224 0 2.12-.975 2.12-2.113 0-1.137-.896-2.112-2.12-2.112zM25.208 52.081H23.25c-1.224 0-2.121.975-2.121 2.113 0 1.137.979 2.112 2.121 2.112h1.958c1.224 0 2.12-.975 2.12-2.112 0-1.138-.896-2.113-2.12-2.113zM25.208 62.725H23.25c-1.224 0-2.121.975-2.121 2.113 0 1.137.979 2.112 2.121 2.112h1.958c1.224 0 2.12-.975 2.12-2.112 0-1.138-.896-2.113-2.12-2.113z" transform="translate(44 33)"/>
                <path d="M61.347 29.656L46.745 15.113c-.408-.407-.98-.65-1.55-.65h-9.871C33.61 6.5 26.432.405 17.866.405 8.076.406 0 8.37 0 18.2c0 7.313 4.487 13.65 10.85 16.331v40.95c0 1.219.979 2.113 2.121 2.113h46.745c1.223 0 2.12-.975 2.12-2.113V31.2c.164-.569-.08-1.137-.489-1.544zm-15.744-9.668l10.85 10.806h-10.85V19.988zM4.323 18.2c0-7.475 6.038-13.487 13.543-13.487 7.505 0 13.542 6.012 13.542 13.487 0 7.475-6.037 13.488-13.542 13.488S4.324 25.593 4.324 18.2zm10.932 55.087V35.75c.898.163 1.713.244 2.692.244 9.627 0 17.458-7.638 17.785-17.144h5.629v14.219c0 1.218.978 2.112 2.12 2.112h14.277V73.37H15.255v-.082z" transform="translate(44 33)"/>
                <path d="M25.371 12.756c-.816-.812-2.203-.812-3.018 0l-6.282 6.256-2.61-2.6c-.816-.812-2.203-.812-3.019 0-.816.813-.816 2.194 0 3.007l4.08 4.062c.407.406.978.65 1.55.65.57 0 1.141-.244 1.55-.65l7.83-7.8c.735-.731.735-2.112-.08-2.925z" transform="translate(44 33)"/>
            </g>
        </g>
    </g>
</svg>
