<svg xmlns="http://www.w3.org/2000/svg" xmlns:xlink="http://www.w3.org/1999/xlink" width="130" height="120" viewBox="0 0 130 120">
    <defs>
        <path id="gw96weuh9a" d="M0 0H150V150H0z"/>
    </defs>
    <g fill="none" fill-rule="evenodd" transform="translate(-8 -10)">
        <mask id="twveqqovib" fill="#fff">
            <use xlink:href="#gw96weuh9a"/>
        </mask>
        <path fill="#EEB216" d="M64.751 130C96.276 130 138 125.871 138 91.266 138 56.66 96.606 10 65.081 10S8 38.053 8 72.658C8 107.263 33.226 130 64.751 130z" mask="url(#twveqqovib)" opacity=".224"/>
        <g mask="url(#twveqqovib)">
            <path fill="#2D2CE9" fill-rule="nonzero" d="M58.332 31.277c-12.313 0-22.326 10.052-22.326 22.413s10.013 22.414 22.326 22.414c5.625 0 10.767-2.098 14.697-5.557l2.326 2.335-1.047 1.074c-.282.28-.441.663-.441 1.062 0 .4.159.782.441 1.063l18.954 19.005c.58.575 1.513.575 2.093 0l4.21-4.226c.572-.582.572-1.52 0-2.101L80.633 69.73c-.28-.284-.66-.443-1.058-.443s-.779.16-1.058.443l-1.047 1.05-2.349-2.357c3.439-3.944 5.535-9.09 5.535-14.733 0-12.36-10.013-22.413-22.325-22.413zm0 2.988c10.703 0 19.348 8.68 19.348 19.425 0 10.746-8.645 19.426-19.348 19.426-10.704 0-19.35-8.68-19.35-19.426 0-10.746 8.646-19.425 19.35-19.425zm21.232 38.64L96.401 89.81l-2.093 2.102-16.837-16.904 2.093-2.102z"/>
        </g>
    </g>
</svg>
