<svg xmlns="http://www.w3.org/2000/svg" xmlns:xlink="http://www.w3.org/1999/xlink" width="140" height="116" viewBox="0 0 140 116">
    <defs>
        <path id="c09i5i6uba" d="M0 0H150V150H0z"/>
    </defs>
    <g fill="none" fill-rule="evenodd" transform="translate(-2 -13)">
        <mask id="fks84l8sjb" fill="#fff">
            <use xlink:href="#c09i5i6uba"/>
        </mask>
        <path fill="#EEB216" d="M73.834 129C105.043 129 142 105.901 142 76.194 142 46.487 83.644 13 52.435 13 21.226 13 2 63.8 2 93.507 2 123.215 42.625 129 73.834 129z" mask="url(#fks84l8sjb)" opacity=".224"/>
        <g mask="url(#fks84l8sjb)">
            <g fill-rule="nonzero">
                <path fill="#2D2CE9" d="M16.122 42.19c2.953-9.224 9.319-17.007 17.74-21.772 1.225-.7.132-2.58-1.093-1.88-8.903 5.05-15.619 13.335-18.747 23.084-.438 1.334 1.684 1.902 2.1.569zM70 87.464c-11.331 5.815-25.003 5.596-36.138-.59-1.224-.678-2.34 1.202-1.093 1.88 11.834 6.558 26.315 6.776 38.347.59 1.225-.634.13-2.514-1.116-1.88zM71.947 20.92c8.006 4.81 14.022 12.373 16.865 21.27.416 1.334 2.538.766 2.1-.59-3.018-9.443-9.384-17.466-17.871-22.581-1.182-.722-2.297 1.18-1.094 1.901z" transform="translate(28 25)"/>
                <g>
                    <g fill="#211FEC">
                        <path d="M21.547 9.837c-.372 2.602-1.531 5.443-3.631 7.127-2.363 1.88-5.01.765-6.65-1.443-1.51-2.055-2.538-4.897-2.297-7.476.328-3.476 3.697-6.187 7.175-5.706 1.75.24 3.39 1.29 4.375 2.754 1.05 1.53 1.203 3.258.984 5.05-.175 1.4 2.013 1.377 2.188 0 .525-4.066-1.51-7.935-5.382-9.465C14.35-.874 9.734.984 7.766 4.7c-1.794 3.388-.92 7.564.875 10.755 1.684 3.039 4.921 5.662 8.575 4.394 3.74-1.311 5.928-5.749 6.453-9.422.197-1.377-1.925-1.989-2.122-.59z" transform="translate(28 25) translate(37.188)"/>
                        <g>
                            <path d="M28.328 8.285v6.47l1.094-1.092H1.18l1.094 1.093c0-2.361-.262-4.875.044-7.214.284-2.274 1.947-4.263 4.134-4.919 1.378-.415 2.91-.262 4.331-.262-.306-.175-.634-.372-.94-.547 1.51 2.252 3.019 4.504 4.506 6.755.46.7 1.422.7 1.881 0 1.51-2.251 3.019-4.503 4.506-6.755-.306.175-.634.372-.94.547 1.531 0 3.15-.175 4.616.35 2.362.83 3.85 3.104 3.915 5.574.022 1.4 2.21 1.4 2.188 0-.066-3.017-1.707-5.88-4.463-7.258-1.816-.918-4.2-1.114-6.234-.874-.722.087-.985.568-1.357 1.115-.503.765-1.006 1.508-1.509 2.273-.875 1.312-1.75 2.602-2.625 3.913h1.881c-.94-1.399-1.859-2.798-2.8-4.175-.503-.765-1.006-1.53-1.53-2.273-.438-.634-.854-.831-1.62-.831-2.668 0-5.14.11-7.306 1.902C.897 3.782.043 6.23.043 8.853v5.925c0 .59.504 1.093 1.095 1.093H29.378c.59 0 1.094-.503 1.094-1.093V8.307c.044-1.421-2.144-1.421-2.144-.022z" transform="translate(28 25) translate(37.188) translate(0 21.205)"/>
                            <path d="M9.822 1.793c1.51 2.251 3.019 4.503 4.506 6.754.46.7 1.422.7 1.881 0 1.51-2.251 3.02-4.503 4.507-6.754C21.503.613 19.6-.481 18.834.7c-1.509 2.251-3.018 4.503-4.506 6.754h1.881C14.7 5.203 13.191 2.951 11.703.7 10.938-.48 9.034.612 9.822 1.793z" transform="translate(28 25) translate(37.188) translate(0 21.205)"/>
                        </g>
                    </g>
                    <g fill="#2D2CE9">
                        <path d="M21.525 9.925c-.372 2.601-1.531 5.443-3.631 7.126-2.363 1.88-5.01.765-6.65-1.443-1.51-2.055-2.538-4.896-2.275-7.476.328-3.476 3.697-6.186 7.175-5.705 1.75.24 3.39 1.29 4.375 2.754 1.05 1.53 1.203 3.257.984 5.05-.175 1.399 2.013 1.377 2.188 0 .525-4.066-1.51-7.936-5.382-9.466-3.959-1.552-8.575.306-10.543 4.022-1.794 3.389-.92 7.564.875 10.756 1.684 3.038 4.921 5.662 8.575 4.394 3.74-1.312 5.928-5.75 6.453-9.422.175-1.377-1.947-1.968-2.144-.59z" transform="translate(28 25) translate(0 45.688)"/>
                        <g>
                            <path d="M28.306 8.373v6.47L29.4 13.75H1.159l1.094 1.093c0-2.36-.262-4.875.044-7.214.284-2.273 1.947-4.262 4.134-4.918 1.378-.416 2.91-.263 4.331-.263-.306-.175-.634-.371-.94-.546 1.51 2.251 3.019 4.503 4.506 6.755.46.7 1.422.7 1.881 0 1.51-2.252 3.02-4.504 4.507-6.755-.307.175-.635.371-.941.546 1.531 0 3.15-.175 4.616.35 2.362.853 3.85 3.104 3.915 5.575.022 1.399 2.21 1.399 2.188 0-.066-3.017-1.706-5.88-4.463-7.258C24.216.197 21.831 0 19.797.24c-.722.088-.985.569-1.356 1.115-.503.765-1.007 1.509-1.51 2.274-.875 1.311-1.75 2.601-2.625 3.913h1.882c-.941-1.4-1.86-2.798-2.8-4.175-.504-.766-1.007-1.53-1.532-2.274-.437-.634-.853-.83-1.618-.83-2.67 0-5.141.109-7.307 1.901C.875 3.87.021 6.318.021 8.941v5.924c0 .59.504 1.093 1.095 1.093h28.24c.59 0 1.094-.503 1.094-1.093v-6.47c.044-1.422-2.144-1.422-2.144-.022z" transform="translate(28 25) translate(0 45.688) translate(0 21.205)"/>
                            <path d="M9.8 1.88c1.51 2.252 3.019 4.503 4.506 6.755.46.7 1.422.7 1.882 0 1.509-2.252 3.018-4.503 4.506-6.755C21.48.7 19.578-.393 18.813.787c-1.51 2.252-3.02 4.503-4.507 6.755h1.882c-1.51-2.252-3.02-4.503-4.507-6.755C10.916-.372 9.013.721 9.8 1.88z" transform="translate(28 25) translate(0 45.688) translate(0 21.205)"/>
                        </g>
                    </g>
                    <g>
                        <path fill="#211FEC" d="M21.613 9.925c-.372 2.601-1.532 5.443-3.632 7.126-2.362 1.88-5.01.765-6.65-1.443-1.51-2.055-2.537-4.896-2.297-7.476.329-3.476 3.697-6.186 7.175-5.705 1.75.24 3.391 1.29 4.375 2.754 1.05 1.53 1.204 3.257.985 5.05-.175 1.399 2.012 1.377 2.187 0 .525-4.066-1.51-7.936-5.381-9.466-3.96-1.552-8.575.306-10.544 4.022-1.794 3.389-.919 7.564.875 10.756 1.685 3.038 4.922 5.662 8.575 4.394 3.74-1.312 5.928-5.75 6.453-9.422.197-1.377-1.903-1.968-2.122-.59z" transform="translate(28 25) translate(74.375 45.688)"/>
                        <g fill="#2D2CE9">
                            <path d="M28.394 8.373v6.47l1.094-1.093H1.247l1.094 1.093c0-2.36-.263-4.875.043-7.214.285-2.273 1.947-4.262 4.135-4.918 1.378-.416 2.91-.263 4.331-.263-.306-.175-.634-.371-.94-.546 1.509 2.251 3.018 4.503 4.506 6.755.459.7 1.421.7 1.88 0 1.51-2.252 3.02-4.504 4.507-6.755-.306.175-.634.371-.94.546 1.53 0 3.15-.175 4.615.35 2.363.853 3.872 3.104 3.916 5.575.022 1.399 2.21 1.399 2.187 0-.065-3.017-1.706-5.88-4.462-7.258C24.303.197 21.919 0 19.884.24c-.721.088-.984.569-1.356 1.115-.503.765-1.006 1.509-1.51 2.274-.874 1.311-1.75 2.601-2.624 3.913h1.881c-.94-1.4-1.86-2.798-2.8-4.175-.503-.766-1.006-1.53-1.531-2.274-.438-.634-.853-.83-1.619-.83-2.669 0-5.14.109-7.306 1.901C.962 3.87.109 6.318.109 8.941v5.924c0 .59.504 1.093 1.094 1.093h28.241c.59 0 1.094-.503 1.094-1.093v-6.47c.043-1.422-2.144-1.422-2.144-.022z" transform="translate(28 25) translate(74.375 45.688) translate(0 21.205)"/>
                            <path d="M9.91 1.88c1.509 2.252 3.018 4.503 4.506 6.755.459.7 1.421.7 1.88 0 1.51-2.252 3.02-4.503 4.507-6.755C21.591.7 19.687-.393 18.922.787c-1.51 2.252-3.019 4.503-4.506 6.755h1.88C14.789 5.29 13.279 3.039 11.792.787 11.003-.372 9.12.721 9.909 1.88z" transform="translate(28 25) translate(74.375 45.688) translate(0 21.205)"/>
                        </g>
                    </g>
                </g>
            </g>
        </g>
    </g>
</svg>
